<svg xmlns="http://www.w3.org/2000/svg" viewBox="0 0 50 50"><defs><style>.cls-1{fill:#ffa600;}.cls-2{fill:#bf7d00;}.cls-3{fill:#ffedcc;}.cls-4{fill:#996300;}</style></defs><g id="Layer_1" data-name="Layer 1"><g id="POLYGON_GFI" data-name="POLYGON GFI"><circle class="cls-1" cx="25" cy="25" r="25"/></g></g><g id="Layer_2" data-name="Layer 2"><g id="Layer_1-2" data-name="Layer_1"><g id="_1421394342400" data-name=" 1421394342400"><polygon class="cls-2" points="24.996 5 24.728 5.912 24.728 32.36 24.996 32.628 37.273 25.371 24.996 5"/><polygon class="cls-3" points="24.996 5 12.719 25.371 24.996 32.628 24.996 19.791 24.996 5"/><polygon class="cls-2" points="24.996 34.953 24.845 35.137 24.845 44.558 24.996 45 37.281 27.699 24.996 34.953"/><polygon class="cls-3" points="24.996 45 24.996 34.953 12.719 27.699 24.996 45"/><polygon class="cls-4" points="24.996 32.628 37.273 25.371 24.996 19.791 24.996 32.628"/><polygon class="cls-2" points="12.719 25.371 24.996 32.628 24.996 19.791 12.719 25.371"/></g></g></g></svg>